<!--
%%{init: {"themeVariables": { "pie1": "#7cb5ec", "pie2": "#90ed7d", "pie3": "#f7a35c", "pie4": "#e4d354", "pie5": "#c6cdd5", "pie6": "#e4c4fb", "pie7": "#91e8e1"}}}%%
pie
	title Each year benchmark time by % of total
	"Year 2020" : 220
	"Year 2016" : 109
    "Year 2017" : 57
    "Year 2018" : 35
	"Years 2021 - 2024": 22
	"Year 2015" : 14
	"Year 2019" : 14
-->
<svg viewBox="0 0 1350 450" preserveAspectRatio="xMidYMin" xmlns="http://www.w3.org/2000/svg">
	<style>
		text {font-family:sans-serif;font-size:17px;}
		.pieOuterCircle {stroke:black;stroke-width:2px;fill:none;}
		.pieCircle {stroke:black;stroke-width:2px;opacity:0.7;}
		.slice {text-anchor:middle;}
		.pieTitleText {text-anchor:middle;font-size:25px;}
	</style>
	<g transform="translate(675,225)">
		<circle class="pieOuterCircle" cx="0" cy="0" r="186"/>
		<path class="pieCircle" d="M0,-185A185,185,0,0,1,37.981,181.059L0,0Z" fill="#7cb5ec"/>
		<path class="pieCircle" d="M37.981,181.059A185,185,0,0,1,-175.404,58.809L0,0Z" fill="#90ed7d"/>
		<path class="pieCircle" d="M-175.404,58.809A185,185,0,0,1,-167.623,-78.278L0,0Z" fill="#f7a35c"/>
		<path class="pieCircle" d="M-167.623,-78.278A185,185,0,0,1,-114.448,-145.35L0,0Z" fill="#e4d354"/>
		<path class="pieCircle" d="M-114.448,-145.35A185,185,0,0,1,-67.506,-172.244L0,0Z" fill="#c6cdd5"/>
		<path class="pieCircle" d="M-67.506,-172.244A185,185,0,0,1,-34.35,-181.783L0,0Z" fill="#e4c4fb"/>
		<path class="pieCircle" d="M-34.35,-181.783A185,185,0,0,1,0,-185L0,0Z" fill="#91e8e1"/>
		<text class="slice" style="text-anchor: middle;" transform="translate(138.00913776856822,-14.319231556768457)">47%</text>
		<text class="slice" style="text-anchor: middle;" transform="translate(-68.97387502817253,120.39172340156128)">23%</text>
		<text class="slice" style="text-anchor: middle;" transform="translate(-138.5270628506141,-7.862274351739144)">12%</text>
		<text class="slice" style="text-anchor: middle;" transform="translate(-108.72596917400247,-86.19875942943648)">7%</text>
		<text class="slice" style="text-anchor: middle;" transform="translate(-68.97387502817246,-120.39172340156132)">5%</text>
		<text class="slice" style="text-anchor: middle;" transform="translate(-38.36328372192416,-133.3409950543011)">3%</text>
		<text class="slice" style="text-anchor: middle;" transform="translate(-12.937746531048088,-138.1454929221303)">3%</text>
		<text class="pieTitleText" x="0" y="-200">Each year benchmark time by % of total</text>
		<g transform="translate(216,-77)">
			<rect height="18" style="fill: rgb(124, 181, 236); stroke: rgb(124, 181, 236);" width="18"/>
			<text x="22" y="14">Year 2020</text>
		</g>
		<g transform="translate(216,-55)">
			<rect height="18" style="fill: rgb(144, 237, 125); stroke: rgb(144, 237, 125);" width="18"/>
			<text x="22" y="14">Year 2016</text>
		</g>
		<g transform="translate(216,-33)">
			<rect height="18" style="fill: rgb(247, 163, 92); stroke: rgb(247, 163, 92);" width="18"/>
			<text x="22" y="14">Year 2017</text>
		</g>
		<g transform="translate(216,-11)">
			<rect height="18" style="fill: rgb(228, 211, 84); stroke: rgb(228, 211, 84);" width="18"/>
			<text x="22" y="14">Year 2018</text>
		</g>
		<g transform="translate(216,11)">
			<rect height="18" style="fill: rgb(198, 205, 213); stroke: rgb(198, 205, 213);" width="18"/>
			<text x="22" y="14">Years 2021 - 2024</text>
		</g>
		<g transform="translate(216,33)">
			<rect height="18" style="fill: rgb(228, 196, 251); stroke: rgb(228, 196, 251);" width="18"/>
			<text x="22" y="14">Year 2015</text>
		</g>
		<g transform="translate(216,55)">
			<rect height="18" style="fill: rgb(145, 232, 225); stroke: rgb(145, 232, 225);" width="18"/>
			<text x="22" y="14">Year 2019</text>
		</g>
	</g>
</svg>
