<!--
%%{init: {"themeVariables": { "pie1": "#7cb5ec", "pie2": "#90ed7d", "pie3": "#c6cdd5"}}}%%
pie
    title Year 2016 benchmark time by % of total
    "Day 14" : 434000
    "Day 5" : 212000
    "Others" : 16696
-->
<svg viewBox="0 0 1350 450" preserveAspectRatio="xMidYMin" xmlns="http://www.w3.org/2000/svg">
	<style>
		text {font-family:sans-serif;font-size:17px;}
		.pieOuterCircle {stroke:black;stroke-width:2px;fill:none;}
		.pieCircle {stroke:black;stroke-width:2px;opacity:0.7;}
		.slice {text-anchor:middle;}
		.pieTitleText {text-anchor:middle;font-size:25px;}
	</style>
	<g transform="translate(675,225)">
		<circle class="pieOuterCircle" cx="0" cy="0" r="186"/>
		<path class="pieCircle" d="M0,-185A185,185,0,1,1,-152.945,104.081L0,0Z" fill="#7cb5ec"/>
		<path class="pieCircle" d="M-152.945,104.081A185,185,0,0,1,-29.163,-182.687L0,0Z" fill="#90ed7d"/>
		<path class="pieCircle" d="M-29.163,-182.687A185,185,0,0,1,0,-185L0,0Z" fill="#c6cdd5"/>
		<text class="slice" transform="translate(122.6427521532404,64.88696205154658)">65%</text>
		<text class="slice" transform="translate(-127.38920393164409,-54.98684589665052)">32%</text>
		<text class="slice" transform="translate(-10.970524888634188,-138.3156176419274)">3%</text>
		<text class="pieTitleText" x="0" y="-200">Year 2016 benchmark time by % of total</text>
		<g transform="translate(216,-33)">
			<rect height="18" style="fill: rgb(124, 181, 236); stroke: rgb(124, 181, 236);" width="18"/>
			<text x="22" y="14">Day 14</text>
		</g>
		<g transform="translate(216,-11)">
			<rect height="18" style="fill: rgb(144, 237, 125); stroke: rgb(144, 237, 125);" width="18"/>
			<text x="22" y="14">Day 5</text>
		</g>
		<g transform="translate(216,11)">
			<rect height="18" style="fill: rgb(198, 205, 213); stroke: rgb(198, 205, 213);" width="18"/>
			<text x="22" y="14">Others</text>
		</g>
	</g>
</svg>