<!--
%%{init: {"themeVariables": { "pie1": "#7cb5ec", "pie2": "#90ed7d", "pie3": "#c6cdd5"}}}%%
pie
    title Year 2016 benchmark time by % of total
    "Day 14" : 77000
    "Day 5" : 37000
    "Others" : 6240
-->
<svg viewBox="0 0 1350 450" preserveAspectRatio="xMidYMin" xmlns="http://www.w3.org/2000/svg">
	<style>
		text {font-family:sans-serif;font-size:17px;}
		.pieOuterCircle {stroke:black;stroke-width:2px;fill:none;}
		.pieCircle {stroke:black;stroke-width:2px;opacity:0.7;}
		.slice {text-anchor:middle;}
		.pieTitleText {text-anchor:middle;font-size:25px;}
	</style>
	<g transform="translate(675,225)">
		<circle class="pieOuterCircle" cx="0" cy="0" r="186"/>
		<path class="pieCircle" d="M0,-185A185,185,0,1,1,-142.83,117.577L0,0Z" fill="#7cb5ec"/>
		<path class="pieCircle" d="M-142.83,117.577A185,185,0,0,1,-59.26,-175.252L0,0Z" fill="#90ed7d"/>
		<path class="pieCircle" d="M-59.26,-175.252A185,185,0,0,1,0,-185L0,0Z" fill="#c6cdd5"/>
		<text class="slice" style="text-anchor: middle;" transform="translate(125.47304094309987,59.22903423567856)">64%</text>
		<text class="slice" style="text-anchor: middle;" transform="translate(-133.42291916882385,-38.07738358224603)">31%</text>
		<text class="slice" style="text-anchor: middle;" transform="translate(-22.521265139121983,-136.9100256246173)">5%</text>
		<text class="pieTitleText" x="0" y="-200">Year 2016 benchmark time by % of total</text>
		<g transform="translate(216,-33)">
			<rect height="18" style="fill: rgb(124, 181, 236); stroke: rgb(124, 181, 236);" width="18"/>
			<text x="22" y="14">Day 14</text>
		</g>
		<g transform="translate(216,-11)">
			<rect height="18" style="fill: rgb(144, 237, 125); stroke: rgb(144, 237, 125);" width="18"/>
			<text x="22" y="14">Day 5</text>
		</g>
		<g transform="translate(216,11)">
			<rect height="18" style="fill: rgb(198, 205, 213); stroke: rgb(198, 205, 213);" width="18"/>
			<text x="22" y="14">Others</text>
		</g>
	</g>
</svg>