<!--
%%{init: {"themeVariables": { "pie1": "#7cb5ec", "pie2": "#90ed7d", "pie3": "#f7a35c", "pie4": "#e4d354", "pie5": "#e4c4fb", "pie6": "#c6cdd5"}}}%%
pie
	title Each year benchmark time by % of total
	"Year 2016" : 663
	"Year 2020" : 286
	"Year 2015" : 87
	"Years 2019, 2021, 2022 and 2023" : 49
-->
<svg viewBox="0 0 1350 450" preserveAspectRatio="xMidYMin" xmlns="http://www.w3.org/2000/svg">
	<style>
		text {font-family:sans-serif;font-size:17px;}
		.pieOuterCircle {stroke:black;stroke-width:2px;fill:none;}
		.pieCircle {stroke:black;stroke-width:2px;opacity:0.7;}
		.slice {text-anchor:middle;}
		.pieTitleText {text-anchor:middle;font-size:25px;}
	</style>
	<g transform="translate(675,225)">
		<circle class="pieOuterCircle" cx="0" cy="0" r="186"/>
		<path class="pieCircle" d="M0,-185A185,185,0,1,1,-118.87,141.756L0,0Z" fill="#7cb5ec"/>
		<path class="pieCircle" d="M-118.87,141.756A185,185,0,0,1,-131.099,-130.53L0,0Z" fill="#90ed7d"/>
		<path class="pieCircle" d="M-131.099,-130.53A185,185,0,0,1,-51.793,-177.602L0,0Z" fill="#f7a35c"/>
		<path class="pieCircle" d="M-51.793,-177.602A185,185,0,0,1,0,-185L0,0Z" fill="#e4d354"/>
		<text class="slice" transform="translate(130.38998309822242,47.43432098855506)">61%</text>
		<text class="slice" transform="translate(-138.6102879826074,6.2249952111339635)">26%</text>
		<text class="slice" transform="translate(-70.81959729524179,-119.31532650476963)">8%</text>
		<text class="slice" transform="translate(-19.61964782716757,-137.35585869972172)">5%</text>
		<text class="pieTitleText" x="0" y="-200">Each year benchmark time by % of total</text>
		<g transform="translate(216,-44)">
			<rect height="18" style="fill: rgb(124, 181, 236); stroke: rgb(124, 181, 236);" width="18"/>
			<text x="22" y="14">Year 2016</text>
		</g>
		<g transform="translate(216,-22)">
			<rect height="18" style="fill: rgb(144, 237, 125); stroke: rgb(144, 237, 125);" width="18"/>
			<text x="22" y="14">Year 2020</text>
		</g>
		<g transform="translate(216,0)">
			<rect height="18" style="fill: rgb(247, 163, 92); stroke: rgb(247, 163, 92);" width="18"/>
			<text x="22" y="14">Year 2015</text>
		</g>
		<g transform="translate(216,22)">
			<rect height="18" style="fill: rgb(228, 211, 84); stroke: rgb(228, 211, 84);" width="18"/>
			<text x="22" y="14">Years 2019, 2021, 2022 and 2023</text>
		</g>
	</g>
</svg>
