<!--
%%{init: {"themeVariables": { "pie1": "#7cb5ec", "pie2": "#c6cdd5", "pie3": "#90ed7d", "pie4": "#f7a35c", "pie5": "#e4d354", "pie6": "#e4c4fb"}}}%%
pie
    title Year 2023 benchmark time by % of total
    "Day 17" : 2568
    "Others" : 1096
    "Day 16" : 826
    "Day 23" : 640
    "Day 14" : 632
    "Day 12" : 440
-->
<svg viewBox="0 0 1350 450" preserveAspectRatio="xMidYMin" xmlns="http://www.w3.org/2000/svg">
	<style>
		text {font-family:sans-serif;font-size:17px;}
		.pieOuterCircle {stroke:black;stroke-width:2px;fill:none;}
		.pieCircle {stroke:black;stroke-width:2px;opacity:0.7;}
		.slice {text-anchor:middle;}
		.pieTitleText {text-anchor:middle;font-size:25px;}
	</style>
	<g transform="translate(675,225)">
		<circle class="pieOuterCircle" cx="0" cy="0" r="186"/>
		<path class="pieCircle" d="M0,-185A185,185,0,0,1,95.112,158.678L0,0Z" fill="#7cb5ec"/>
		<path class="pieCircle" d="M95.112,158.678A185,185,0,0,1,-99.89,155.715L0,0Z" fill="#c6cdd5"/>
		<path class="pieCircle" d="M-99.89,155.715A185,185,0,0,1,-182.529,30.134L0,0Z" fill="#90ed7d"/>
		<path class="pieCircle" d="M-182.529,30.134A185,185,0,0,1,-163.685,-86.21L0,0Z" fill="#f7a35c"/>
		<path class="pieCircle" d="M-163.685,-86.21A185,185,0,0,1,-79.762,-166.922L0,0Z" fill="#e4d354"/>
		<path class="pieCircle" d="M-79.762,-166.922A185,185,0,0,1,0,-185L0,0Z" fill="#e4c4fb"/>
		<text class="slice" style="text-anchor: middle;" transform="translate(133.72363622793245,-37.00745349223041)">41%</text>
		<text class="slice" style="text-anchor: middle;" transform="translate(-2.1084127895787277,138.7339795994793)">18%</text>
		<text class="slice" style="text-anchor: middle;" transform="translate(-115.90533498773713,76.27264136884496)">13%</text>
		<text class="slice" style="text-anchor: middle;" transform="translate(-136.96505689348407,-22.184131494486508)">10%</text>
		<text class="slice" style="text-anchor: middle;" transform="translate(-96.17916996314405,-100.00564866646609)">10%</text>
		<text class="slice" style="text-anchor: middle;" transform="translate(-30.669181056581156,-135.31801001093183)">7%</text>
		<text class="pieTitleText" x="0" y="-200">Year 2023 benchmark time by % of total</text>
		<g transform="translate(216,-66)">
			<rect height="18" style="fill: rgb(124, 181, 236); stroke: rgb(124, 181, 236);" width="18"/>
			<text x="22" y="14">Day 17</text>
		</g>
		<g transform="translate(216,-44)">
			<rect height="18" style="fill: rgb(198, 205, 213); stroke: rgb(198, 205, 213);" width="18"/>
			<text x="22" y="14">Others</text>
		</g>
		<g transform="translate(216,-22)">
			<rect height="18" style="fill: rgb(144, 237, 125); stroke: rgb(144, 237, 125);" width="18"/>
			<text x="22" y="14">Day 16</text>
		</g>
		<g transform="translate(216,0)">
			<rect height="18" style="fill: rgb(247, 163, 92); stroke: rgb(247, 163, 92);" width="18"/>
			<text x="22" y="14">Day 23</text>
		</g>
		<g transform="translate(216,22)">
			<rect height="18" style="fill: rgb(228, 211, 84); stroke: rgb(228, 211, 84);" width="18"/>
			<text x="22" y="14">Day 14</text>
		</g>
		<g transform="translate(216,44)">
			<rect height="18" style="fill: rgb(228, 196, 251); stroke: rgb(228, 196, 251);" width="18"/>
			<text x="22" y="14">Day 12</text>
		</g>
	</g>
</svg>