<!--
%%{init: {"themeVariables": { "pie1": "#7cb5ec", "pie2": "#90ed7d", "pie3": "#f7a35c", "pie4": "#e4d354", "pie5": "#e4c4fb", "pie6": "#c6cdd5"}}}%%
pie
	title Each year benchmark time by % of total
	"Year 2020" : 272
	"Year 2016" : 120
    "Year 2017" : 89
    "Year 2018" : 35
	"Years 2021 - 2024": 29
	"Year 2015" : 24
	"Year 2019" : 16
-->
<svg viewBox="0 0 1350 450" preserveAspectRatio="xMidYMin" xmlns="http://www.w3.org/2000/svg">
	<style>
		text {font-family:sans-serif;font-size:17px;}
		.pieOuterCircle {stroke:black;stroke-width:2px;fill:none;}
		.pieCircle {stroke:black;stroke-width:2px;opacity:0.7;}
		.slice {text-anchor:middle;}
		.pieTitleText {text-anchor:middle;font-size:25px;}
	</style>
	<g transform="translate(675,225)">
		<circle class="pieOuterCircle" cx="0" cy="0" r="186"/>
		<path class="pieCircle" d="M0,-185A185,185,0,0,1,40.405,180.534L0,0Z" fill="#7cb5ec"/>
		<path class="pieCircle" d="M40.405,180.534A185,185,0,0,1,-162.165,89.037L0,0Z" fill="#90ed7d"/>
		<path class="pieCircle" d="M-162.165,89.037A185,185,0,0,1,-166.277,-81.099L0,0Z" fill="#f7a35c"/>
		<path class="pieCircle" d="M-166.277,-81.099A185,185,0,0,1,-124.893,-136.48L0,0Z" fill="#e4d354"/>
		<path class="pieCircle" d="M-124.893,-136.48A185,185,0,0,1,-77.057,-168.188L0,0Z" fill="#e4c4fb"/>
		<path class="pieCircle" d="M-77.057,-168.188A185,185,0,0,1,-31.636,-182.275L0,0Z" fill="#c6cdd5"/>
		<path class="pieCircle" d="M-31.636,-182.275A185,185,0,0,1,0,-185L0,0Z" fill="hsl(300, 100%, 76.2745098039%)"/>
		<text class="slice" style="text-anchor: middle;" transform="translate(137.91003719209237,-15.244151064447514)">46%</text>
		<text class="slice" style="text-anchor: middle;" transform="translate(-57.114594392468106,126.44953779031322)">21%</text>
		<text class="slice" style="text-anchor: middle;" transform="translate(-138.70948695362677,3.3527196515135045)">15%</text>
		<text class="slice" style="text-anchor: middle;" transform="translate(-111.14609622273859,-83.0548481092208)">6%</text>
		<text class="slice" style="text-anchor: middle;" transform="translate(-76.65890771635956,-115.650224244204)">5%</text>
		<text class="slice" style="text-anchor: middle;" transform="translate(-41.10066585263728,-132.5228197951955)">4%</text>
		<text class="slice" style="text-anchor: middle;" transform="translate(-11.9072769827623,-138.23812518569463)">3%</text>
		<text class="pieTitleText" x="0" y="-200">Each year benchmark time by % of total</text>
		<g transform="translate(216,-77)">
			<rect height="18" style="fill: rgb(124, 181, 236); stroke: rgb(124, 181, 236);" width="18"/>
			<text x="22" y="14">Year 2020</text>
		</g>
		<g transform="translate(216,-55)">
			<rect height="18" style="fill: rgb(144, 237, 125); stroke: rgb(144, 237, 125);" width="18"/>
			<text x="22" y="14">Year 2016</text>
		</g>
		<g transform="translate(216,-33)">
			<rect height="18" style="fill: rgb(247, 163, 92); stroke: rgb(247, 163, 92);" width="18"/>
			<text x="22" y="14">Year 2017</text>
		</g>
		<g transform="translate(216,-11)">
			<rect height="18" style="fill: rgb(228, 211, 84); stroke: rgb(228, 211, 84);" width="18"/>
			<text x="22" y="14">Year 2018</text>
		</g>
		<g transform="translate(216,11)">
			<rect height="18" style="fill: rgb(228, 196, 251); stroke: rgb(228, 196, 251);" width="18"/>
			<text x="22" y="14">Years 2021 - 2024</text>
		</g>
		<g transform="translate(216,33)">
			<rect height="18" style="fill: rgb(198, 205, 213); stroke: rgb(198, 205, 213);" width="18"/>
			<text x="22" y="14">Year 2015</text>
		</g>
		<g transform="translate(216,55)">
			<rect height="18" style="fill: rgb(255, 134, 255); stroke: rgb(255, 134, 255);" width="18"/>
			<text x="22" y="14">Year 2019</text>
		</g>
	</g>
</svg>
