<!--
%%{init: {"themeVariables": { "pie1": "#7cb5ec", "pie2": "#90ed7d", "pie3": "#c6cdd5"}}}%%
pie
    title Year 2016 benchmark time by % of total
    "Day 14" : 71000
    "Day 5" : 33000
    "Others" : 5697
-->
<svg viewBox="0 0 1350 450" preserveAspectRatio="xMidYMin" xmlns="http://www.w3.org/2000/svg">
	<style>
		text {font-family:sans-serif;font-size:17px;}
		.pieOuterCircle {stroke:black;stroke-width:2px;fill:none;}
		.pieCircle {stroke:black;stroke-width:2px;opacity:0.7;}
		.slice {text-anchor:middle;}
		.pieTitleText {text-anchor:middle;font-size:25px;}
	</style>
	<g transform="translate(675,225)">
		<circle class="pieOuterCircle" cx="0" cy="0" r="186"/>
		<path class="pieCircle" d="M0,-185A185,185,0,1,1,-147.758,111.322L0,0Z" fill="#7cb5ec"/>
		<path class="pieCircle" d="M-147.758,111.322A185,185,0,0,1,-59.302,-175.238L0,0Z" fill="#90ed7d"/>
		<path class="pieCircle" d="M-59.302,-175.238A185,185,0,0,1,0,-185L0,0Z" fill="#c6cdd5"/>
		<text class="slice" style="text-anchor: middle;" transform="translate(124.16919241000572,61.91586352661955)">65%</text>
		<text class="slice" style="text-anchor: middle;" transform="translate(-132.5773300529439,-40.92449212919793)">30%</text>
		<text class="slice" style="text-anchor: middle;" transform="translate(-22.53750440943805,-136.90735332696545)">5%</text>
		<text class="pieTitleText" x="0" y="-200">Year 2016 benchmark time by % of total</text>
		<g transform="translate(216,-33)">
			<rect height="18" style="fill: rgb(124, 181, 236); stroke: rgb(124, 181, 236);" width="18"/>
			<text x="22" y="14">Day 14</text>
		</g>
		<g transform="translate(216,-11)">
			<rect height="18" style="fill: rgb(144, 237, 125); stroke: rgb(144, 237, 125);" width="18"/>
			<text x="22" y="14">Day 5</text>
		</g>
		<g transform="translate(216,11)">
			<rect height="18" style="fill: rgb(198, 205, 213); stroke: rgb(198, 205, 213);" width="18"/>
			<text x="22" y="14">Others</text>
		</g>
	</g>
</svg>