<!--
%%{init: {"themeVariables": { "pie1": "#c6cdd5", "pie2": "#7cb5ec", "pie3": "#90ed7d", "pie4": "#f7a35c", "pie5": "#e4d354"}}}%%
pie
    title Year 2019 benchmark time by % of total
    "Others" : 7559
    "Day 13" : 2510
    "Day 25" : 2047
    "Day 16" : 1956
    "Day 21" : 1785
-->
<svg viewBox="0 0 1350 450" preserveAspectRatio="xMidYMin" xmlns="http://www.w3.org/2000/svg">
	<style>
		text {font-family:sans-serif;font-size:17px;}
		.pieOuterCircle {stroke:black;stroke-width:2px;fill:none;}
		.pieCircle {stroke:black;stroke-width:2px;opacity:0.7;}
		.slice {text-anchor:middle;}
		.pieTitleText {text-anchor:middle;font-size:25px;}
	</style>
	<g transform="translate(675,225)">
		<circle class="pieOuterCircle" cx="0" cy="0" r="186"/>
		<path class="pieCircle" d="M0,-185A185,185,0,0,1,26.989,183.021L0,0Z" fill="#c6cdd5"/>
		<path class="pieCircle" d="M26.989,183.021A185,185,0,0,1,-138.761,122.353L0,0Z" fill="#7cb5ec"/>
		<path class="pieCircle" d="M-138.761,122.353A185,185,0,0,1,-184.277,-16.344L0,0Z" fill="#90ed7d"/>
		<path class="pieCircle" d="M-184.277,-16.344A185,185,0,0,1,-120.208,-140.623L0,0Z" fill="#f7a35c"/>
		<path class="pieCircle" d="M-120.208,-140.623A185,185,0,0,1,0,-185L0,0Z" fill="#e4d354"/>
		<text class="slice" style="text-anchor: middle;" transform="translate(138.37838296322658,-10.148183506549564)">48%</text>
		<text class="slice" style="text-anchor: middle;" transform="translate(-47.69057004370716,130.29647742324525)">16%</text>
		<text class="slice" style="text-anchor: middle;" transform="translate(-131.83280409831394,43.26285084891631)">13%</text>
		<text class="slice" style="text-anchor: middle;" transform="translate(-123.32687275007665,-63.57707887034762)">12%</text>
		<text class="slice" style="text-anchor: middle;" transform="translate(-48.05178730324036,-130.16369784607437)">11%</text>
		<text class="pieTitleText" x="0" y="-200">Year 2019 benchmark time by % of total</text>
		<g transform="translate(216,-55)">
			<rect height="18" style="fill: rgb(198, 205, 213); stroke: rgb(198, 205, 213);" width="18"/>
			<text x="22" y="14">Others</text>
		</g>
		<g transform="translate(216,-33)">
			<rect height="18" style="fill: rgb(124, 181, 236); stroke: rgb(124, 181, 236);" width="18"/>
			<text x="22" y="14">Day 13</text>
		</g>
		<g transform="translate(216,-11)">
			<rect height="18" style="fill: rgb(144, 237, 125); stroke: rgb(144, 237, 125);" width="18"/>
			<text x="22" y="14">Day 25</text>
		</g>
		<g transform="translate(216,11)">
			<rect height="18" style="fill: rgb(247, 163, 92); stroke: rgb(247, 163, 92);" width="18"/>
			<text x="22" y="14">Day 16</text>
		</g>
		<g transform="translate(216,33)">
			<rect height="18" style="fill: rgb(228, 211, 84); stroke: rgb(228, 211, 84);" width="18"/>
			<text x="22" y="14">Day 21</text>
		</g>
	</g>
</svg>