<!--
%%{init: {"themeVariables": { "pie1": "#7cb5ec", "pie2": "#90ed7d", "pie3": "#f7a35c", "pie4": "#e4d354", "pie5": "#c6cdd5", "pie6": "#e4c4fb", "pie7": "#91e8e1"}}}%%
pie
	title Each year benchmark time by % of total
	"Year 2020" : 220
	"Year 2016" : 109
    "Year 2017" : 57
    "Year 2018" : 35
	"Years 2021 - 2025": 24
	"Year 2015" : 14
	"Year 2019" : 13
-->
<svg viewBox="0 0 1350 450" preserveAspectRatio="xMidYMin" xmlns="http://www.w3.org/2000/svg">
	<style>
		text {font-family:sans-serif;font-size:17px;}
		.pieOuterCircle {stroke:black;stroke-width:2px;fill:none;}
		.pieCircle {stroke:black;stroke-width:2px;opacity:0.7;}
		.slice {text-anchor:middle;}
		.pieTitleText {text-anchor:middle;font-size:25px;}
	</style>
	<g transform="translate(675,225)">
		<circle class="pieOuterCircle" cx="0" cy="0" r="186"/>
		<path class="pieCircle" d="M0,-185A185,185,0,0,1,39.106,180.82L0,0Z" fill="#7cb5ec"/>
		<path class="pieCircle" d="M39.106,180.82A185,185,0,0,1,-174.85,60.437L0,0Z" fill="#90ed7d"/>
		<path class="pieCircle" d="M-174.85,60.437A185,185,0,0,1,-168.467,-76.444L0,0Z" fill="#f7a35c"/>
		<path class="pieCircle" d="M-168.467,-76.444A185,185,0,0,1,-116.169,-143.978L0,0Z" fill="#e4d354"/>
		<path class="pieCircle" d="M-116.169,-143.978A185,185,0,0,1,-65.07,-173.179L0,0Z" fill="#c6cdd5"/>
		<path class="pieCircle" d="M-65.07,-173.179A185,185,0,0,1,-31.855,-182.237L0,0Z" fill="#e4c4fb"/>
		<path class="pieCircle" d="M-31.855,-182.237A185,185,0,0,1,0,-185L0,0Z" fill="#91e8e1"/>
		<text class="slice" style="text-anchor: middle;" transform="translate(137.96395352915653,-14.748221133571944)">47%</text>
		<text class="slice" style="text-anchor: middle;" transform="translate(-68.03778916791362,120.92320598273326)">23%</text>
		<text class="slice" style="text-anchor: middle;" transform="translate(-138.59943075926154,-6.4622204549726625)">12%</text>
		<text class="slice" style="text-anchor: middle;" transform="translate(-109.70189597004746,-84.95326080014166)">7%</text>
		<text class="slice" style="text-anchor: middle;" transform="translate(-68.84113093080447,-120.46767696012004)">5%</text>
		<text class="slice" style="text-anchor: middle;" transform="translate(-36.50548078656865,-133.86154179801406)">3%</text>
		<text class="slice" style="text-anchor: middle;" transform="translate(-11.990634430228573,-138.23091978989584)">3%</text>
		<text class="pieTitleText" x="0" y="-200">Each year benchmark time by % of total</text>
		<g transform="translate(216,-77)">
			<rect height="18" style="fill: rgb(124, 181, 236); stroke: rgb(124, 181, 236);" width="18"/>
			<text x="22" y="14">Year 2020</text>
		</g>
		<g transform="translate(216,-55)">
			<rect height="18" style="fill: rgb(144, 237, 125); stroke: rgb(144, 237, 125);" width="18"/>
			<text x="22" y="14">Year 2016</text>
		</g>
		<g transform="translate(216,-33)">
			<rect height="18" style="fill: rgb(247, 163, 92); stroke: rgb(247, 163, 92);" width="18"/>
			<text x="22" y="14">Year 2017</text>
		</g>
		<g transform="translate(216,-11)">
			<rect height="18" style="fill: rgb(228, 211, 84); stroke: rgb(228, 211, 84);" width="18"/>
			<text x="22" y="14">Year 2018</text>
		</g>
		<g transform="translate(216,11)">
			<rect height="18" style="fill: rgb(198, 205, 213); stroke: rgb(198, 205, 213);" width="18"/>
			<text x="22" y="14">Years 2021 - 2025</text>
		</g>
		<g transform="translate(216,33)">
			<rect height="18" style="fill: rgb(228, 196, 251); stroke: rgb(228, 196, 251);" width="18"/>
			<text x="22" y="14">Year 2015</text>
		</g>
		<g transform="translate(216,55)">
			<rect height="18" style="fill: rgb(145, 232, 225); stroke: rgb(145, 232, 225);" width="18"/>
			<text x="22" y="14">Year 2019</text>
		</g>
	</g>
</svg>
