<!--
%%{init: {"themeVariables": { "pie1": "#7cb5ec", "pie2": "#90ed7d", "pie3": "#c6cdd5"}}}%%
pie
    title Year 2016 benchmark time by % of total
    "Day 14" : 79000
    "Day 5" : 37000
    "Others" : 16696
-->
<svg viewBox="0 0 1350 450" preserveAspectRatio="xMidYMin" xmlns="http://www.w3.org/2000/svg">
	<style>
		text {font-family:sans-serif;font-size:17px;}
		.pieOuterCircle {stroke:black;stroke-width:2px;fill:none;}
		.pieCircle {stroke:black;stroke-width:2px;opacity:0.7;}
		.slice {text-anchor:middle;}
		.pieTitleText {text-anchor:middle;font-size:25px;}
	</style>
	<g transform="translate(675,225)">
		<circle class="pieOuterCircle" cx="0" cy="0" r="186"/>
		<path class="pieCircle" d="M0,-185A185,185,0,1,1,-104.318,152.784L0,0Z" fill="#7cb5ec"/>
		<path class="pieCircle" d="M-104.318,152.784A185,185,0,0,1,-131.488,-130.138L0,0Z" fill="#90ed7d"/>
		<path class="pieCircle" d="M-131.488,-130.138A185,185,0,0,1,0,-185L0,0Z" fill="#c6cdd5"/>
		<text class="slice" style="text-anchor: middle;" transform="translate(132.57188710995746,40.942120708442715)">60%</text>
		<text class="slice" style="text-anchor: middle;" transform="translate(-138.1145555398382,13.263937878056922)">28%</text>
		<text class="slice" style="text-anchor: middle;" transform="translate(-53.42795012258187,-128.05083617727337)">13%</text>
		<text class="pieTitleText" x="0" y="-200">Year 2016 benchmark time by % of total</text>
		<g transform="translate(216,-33)">
			<rect height="18" style="fill: rgb(124, 181, 236); stroke: rgb(124, 181, 236);" width="18"/>
			<text x="22" y="14">Day 14</text>
		</g>
		<g transform="translate(216,-11)">
			<rect height="18" style="fill: rgb(144, 237, 125); stroke: rgb(144, 237, 125);" width="18"/>
			<text x="22" y="14">Day 5</text>
		</g>
		<g transform="translate(216,11)">
			<rect height="18" style="fill: rgb(198, 205, 213); stroke: rgb(198, 205, 213);" width="18"/>
			<text x="22" y="14">Others</text>
		</g>
	</g>
</svg>