<!--
%%{init: {"themeVariables": { "pie1": "#7cb5ec", "pie2": "#90ed7d", "pie3": "#f7a35c", "pie4": "#e4d354", "pie5": "#c6cdd5", "pie6": "#e4c4fb", "pie7": "#91e8e1"}}}%%
pie
	title Each year benchmark time by % of total
	"Year 2020" : 225
	"Year 2016" : 119
    "Year 2017" : 88
    "Year 2018" : 35
	"Years 2021 - 2024": 26
	"Year 2015" : 17
	"Year 2019" : 15
-->
<svg viewBox="0 0 1350 450" preserveAspectRatio="xMidYMin" xmlns="http://www.w3.org/2000/svg">
	<style>
		text {font-family:sans-serif;font-size:17px;}
		.pieOuterCircle {stroke:black;stroke-width:2px;fill:none;}
		.pieCircle {stroke:black;stroke-width:2px;opacity:0.7;}
		.slice {text-anchor:middle;}
		.pieTitleText {text-anchor:middle;font-size:25px;}
	</style>
	<g transform="translate(675,225)">
		<circle class="pieOuterCircle" cx="0" cy="0" r="186"/>
		<path class="pieCircle" d="M0,-185A185,185,0,0,1,80.268,166.679L0,0Z" fill="#7cb5ec"/>
		<path class="pieCircle" d="M80.268,166.679A185,185,0,0,1,-153.165,103.756L0,0Z" fill="#90ed7d"/>
		<path class="pieCircle" d="M-153.165,103.756A185,185,0,0,1,-165.952,-81.761L0,0Z" fill="#f7a35c"/>
		<path class="pieCircle" d="M-165.952,-81.761A185,185,0,0,1,-118.349,-142.191L0,0Z" fill="#e4d354"/>
		<path class="pieCircle" d="M-118.349,-142.191A185,185,0,0,1,-69.131,-171.598L0,0Z" fill="#c6cdd5"/>
		<path class="pieCircle" d="M-69.131,-171.598A185,185,0,0,1,-33.033,-182.027L0,0Z" fill="#e4c4fb"/>
		<path class="pieCircle" d="M-33.033,-182.027A185,185,0,0,1,0,-185L0,0Z" fill="#91e8e1"/>
		<text class="slice" style="text-anchor: middle;" transform="translate(135.27124781522804,-30.87477958643862)">43%</text>
		<text class="slice" style="text-anchor: middle;" transform="translate(-36.11159900344317,133.9683355028886)">23%</text>
		<text class="slice" style="text-anchor: middle;" transform="translate(-138.42159601314268,9.540663350853483)">17%</text>
		<text class="slice" style="text-anchor: middle;" transform="translate(-108.99484279599453,-85.85852749655352)">7%</text>
		<text class="slice" style="text-anchor: middle;" transform="translate(-71.16477474006949,-119.1097701122589)">5%</text>
		<text class="slice" style="text-anchor: middle;" transform="translate(-38.51064502646447,-133.29850981779822)">3%</text>
		<text class="slice" style="text-anchor: middle;" transform="translate(-12.437454110351302,-138.19143329183942)">3%</text>
		<text class="pieTitleText" x="0" y="-200">Each year benchmark time by % of total</text>
		<g transform="translate(216,-77)">
			<rect height="18" style="fill: rgb(124, 181, 236); stroke: rgb(124, 181, 236);" width="18"/>
			<text x="22" y="14">Year 2020</text>
		</g>
		<g transform="translate(216,-55)">
			<rect height="18" style="fill: rgb(144, 237, 125); stroke: rgb(144, 237, 125);" width="18"/>
			<text x="22" y="14">Year 2016</text>
		</g>
		<g transform="translate(216,-33)">
			<rect height="18" style="fill: rgb(247, 163, 92); stroke: rgb(247, 163, 92);" width="18"/>
			<text x="22" y="14">Year 2017</text>
		</g>
		<g transform="translate(216,-11)">
			<rect height="18" style="fill: rgb(228, 211, 84); stroke: rgb(228, 211, 84);" width="18"/>
			<text x="22" y="14">Year 2018</text>
		</g>
		<g transform="translate(216,11)">
			<rect height="18" style="fill: rgb(198, 205, 213); stroke: rgb(198, 205, 213);" width="18"/>
			<text x="22" y="14">Years 2021 - 2024</text>
		</g>
		<g transform="translate(216,33)">
			<rect height="18" style="fill: rgb(228, 196, 251); stroke: rgb(228, 196, 251);" width="18"/>
			<text x="22" y="14">Year 2015</text>
		</g>
		<g transform="translate(216,55)">
			<rect height="18" style="fill: rgb(145, 232, 225); stroke: rgb(145, 232, 225);" width="18"/>
			<text x="22" y="14">Year 2019</text>
		</g>
	</g>
</svg>
