<!--
%%{init: {"themeVariables": { "pie1": "#7cb5ec", "pie2": "#90ed7d", "pie3": "#f7a35c", "pie4": "#e4d354", "pie5": "#e4c4fb", "pie6": "#c6cdd5"}}}%%
pie
	title Each year benchmark time by % of total
	"Year 2020" : 272
	"Year 2016" : 120
    "Year 2017" : 102
    "Year 2018" : 35
	"Years 2015, 2019, 2021, 2022, 2023" : 65
-->
<svg viewBox="0 0 1350 450" preserveAspectRatio="xMidYMin" xmlns="http://www.w3.org/2000/svg">
	<style>
		text {font-family:sans-serif;font-size:17px;}
		.pieOuterCircle {stroke:black;stroke-width:2px;fill:none;}
		.pieCircle {stroke:black;stroke-width:2px;opacity:0.7;}
		.slice {text-anchor:middle;}
		.pieTitleText {text-anchor:middle;font-size:25px;}
	</style>
	<g transform="translate(675,225)">
		<circle class="pieOuterCircle" cx="0" cy="0" r="186"/>
		<path class="pieCircle" d="M0,-185A185,185,0,0,1,48.354,178.569L0,0Z" fill="#7cb5ec"/>
		<path class="pieCircle" d="M48.354,178.569A185,185,0,0,1,-156.159,99.194L0,0Z" fill="#90ed7d"/>
		<path class="pieCircle" d="M-156.159,99.194A185,185,0,0,1,-161.184,-90.8L0,0Z" fill="#f7a35c"/>
		<path class="pieCircle" d="M-161.184,-90.8A185,185,0,0,1,-66.937,-172.466L0,0Z" fill="#e4d354"/>
		<path class="pieCircle" d="M-66.937,-172.466A185,185,0,0,1,0,-185L0,0Z" fill="#e4c4fb"/>
		<text class="slice" style="text-anchor: middle;" transform="translate(137.53890821276758,-18.292381683091275)">46%</text>
		<text class="slice" style="text-anchor: middle;" transform="translate(-50.20277472318857,129.3493096622196)">20%</text>
		<text class="slice" style="text-anchor: middle;" transform="translate(-138.7014885169856,3.6687304578717295)">17%</text>
		<text class="slice" style="text-anchor: middle;" transform="translate(-90.86192683490827,-104.86025344165337)">11%</text>
		<text class="slice" style="text-anchor: middle;" transform="translate(-25.537675935439314,-136.37957914518026)">6%</text>
		<text class="pieTitleText" x="0" y="-200">Each year benchmark time by % of total</text>
		<g transform="translate(216,-55)">
			<rect height="18" style="fill: rgb(124, 181, 236); stroke: rgb(124, 181, 236);" width="18"/>
			<text x="22" y="14">Year 2020</text>
		</g>
		<g transform="translate(216,-33)">
			<rect height="18" style="fill: rgb(144, 237, 125); stroke: rgb(144, 237, 125);" width="18"/>
			<text x="22" y="14">Year 2016</text>
		</g>
		<g transform="translate(216,-11)">
			<rect height="18" style="fill: rgb(247, 163, 92); stroke: rgb(247, 163, 92);" width="18"/>
			<text x="22" y="14">Year 2017</text>
		</g>
		<g transform="translate(216,11)">
			<rect height="18" style="fill: rgb(228, 211, 84); stroke: rgb(228, 211, 84);" width="18"/>
			<text x="22" y="14">Years 2015, 2019, 2021, 2022, 2023</text>
		</g>
		<g transform="translate(216,33)">
			<rect height="18" style="fill: rgb(228, 196, 251); stroke: rgb(228, 196, 251);" width="18"/>
			<text x="22" y="14">Year 2018</text>
		</g>
	</g>
</svg>
