<!--
%%{init: {"themeVariables": { "pie1": "#7cb5ec", "pie2": "#90ed7d", "pie3": "#f7a35c", "pie4": "#e4d354", "pie5": "#e4c4fb", "pie6": "#c6cdd5"}}}%%
pie
	title Each year benchmark time by % of total
	"Year 2020" : 272
	"Year 2016" : 120
    "Year 2017" : 89
	"Years 2015, 2019, 2021, 2022, 2023" : 65
    "Year 2018" : 35
-->
<svg viewBox="0 0 1350 450" preserveAspectRatio="xMidYMin" xmlns="http://www.w3.org/2000/svg">
	<style>
		text {font-family:sans-serif;font-size:17px;}
		.pieOuterCircle {stroke:black;stroke-width:2px;fill:none;}
		.pieCircle {stroke:black;stroke-width:2px;opacity:0.7;}
		.slice {text-anchor:middle;}
		.pieTitleText {text-anchor:middle;font-size:25px;}
	</style>
	<g transform="translate(675,225)">
		<circle class="pieOuterCircle" cx="0" cy="0" r="186"/>
		<path class="pieCircle" d="M0,-185A185,185,0,0,1,36.766,181.31L0,0Z" fill="#7cb5ec"/>
		<path class="pieCircle" d="M36.766,181.31A185,185,0,0,1,-164.677,84.3L0,0Z" fill="#90ed7d"/>
		<path class="pieCircle" d="M-164.677,84.3A185,185,0,0,1,-163.288,-86.96L0,0Z" fill="#f7a35c"/>
		<path class="pieCircle" d="M-163.288,-86.96A185,185,0,0,1,-68.363,-171.905L0,0Z" fill="#e4d354"/>
		<path class="pieCircle" d="M-68.363,-171.905A185,185,0,0,1,0,-185L0,0Z" fill="#e4c4fb"/>
		<text class="slice" style="text-anchor: middle;" transform="translate(138.05636380255447,-13.856511596239887)">47%</text>
		<text class="slice" style="text-anchor: middle;" transform="translate(-60.201368802561184,125.00943042146065)">21%</text>
		<text class="slice" style="text-anchor: middle;" transform="translate(-138.74543615786084,-1.1253645475836986)">15%</text>
		<text class="slice" style="text-anchor: middle;" transform="translate(-92.52549393814081,-103.39533583050577)">11%</text>
		<text class="slice" style="text-anchor: middle;" transform="translate(-26.10232465364791,-136.27263535895813)">6%</text>
		<text class="pieTitleText" x="0" y="-200">Each year benchmark time by % of total</text>
		<g transform="translate(216,-55)">
			<rect height="18" style="fill: rgb(124, 181, 236); stroke: rgb(124, 181, 236);" width="18"/>
			<text x="22" y="14">Year 2020</text>
		</g>
		<g transform="translate(216,-33)">
			<rect height="18" style="fill: rgb(144, 237, 125); stroke: rgb(144, 237, 125);" width="18"/>
			<text x="22" y="14">Year 2016</text>
		</g>
		<g transform="translate(216,-11)">
			<rect height="18" style="fill: rgb(247, 163, 92); stroke: rgb(247, 163, 92);" width="18"/>
			<text x="22" y="14">Year 2017</text>
		</g>
		<g transform="translate(216,11)">
			<rect height="18" style="fill: rgb(228, 211, 84); stroke: rgb(228, 211, 84);" width="18"/>
			<text x="22" y="14">Years 2015, 2019, 2021, 2022, 2023</text>
		</g>
		<g transform="translate(216,33)">
			<rect height="18" style="fill: rgb(228, 196, 251); stroke: rgb(228, 196, 251);" width="18"/>
			<text x="22" y="14">Year 2018</text>
		</g>
	</g>
</svg>
