<!--
%%{init: {"themeVariables": {"pie1": "#7cb5ec",  "pie2": "#c6cdd5", "pie3": "#90ed7d", "pie4": "#f7a35c", "pie5": "#e4d354"}}}%%
pie
    title Year 2018 benchmark time by % of total
    "Day 14" : 24000
    "Others" : 4123
    "Day 22" : 3396
    "Day 24" : 2056
	"Day 11" : 1404
-->
<svg viewBox="0 0 1350 450" preserveAspectRatio="xMidYMin" xmlns="http://www.w3.org/2000/svg">
	<style>
		text {font-family:sans-serif;font-size:17px;}
		.pieOuterCircle {stroke:black;stroke-width:2px;fill:none;}
		.pieCircle {stroke:black;stroke-width:2px;opacity:0.7;}
		.slice {text-anchor:middle;}
		.pieTitleText {text-anchor:middle;font-size:25px;}
	</style>
	<g transform="translate(675,225)">
		<circle class="pieOuterCircle" cx="0" cy="0" r="186"/>
		<path class="pieCircle" d="M0,-185A185,185,0,1,1,-170.3,72.269L0,0Z" fill="#7cb5ec"/>
		<path class="pieCircle" d="M-170.3,72.269A185,185,0,0,1,-174.455,-61.568L0,0Z" fill="#c6cdd5"/>
		<path class="pieCircle" d="M-174.455,-61.568A185,185,0,0,1,-107.719,-150.405L0,0Z" fill="#90ed7d"/>
		<path class="pieCircle" d="M-107.719,-150.405A185,185,0,0,1,-46.163,-179.148L0,0Z" fill="#f7a35c"/>
		<path class="pieCircle" d="M-46.163,-179.148A185,185,0,0,1,0,-185L0,0Z" fill="#e4d354"/>
		<text class="slice" style="text-anchor: middle;" transform="translate(115.69808492397847,76.5866544831661)">69%</text>
		<text class="slice" style="text-anchor: middle;" transform="translate(-138.683204190531,4.304808410079056)">12%</text>
		<text class="slice" style="text-anchor: middle;" transform="translate(-110.93525520195259,-83.33625653506192)">10%</text>
		<text class="slice" style="text-anchor: middle;" transform="translate(-58.70384430058442,-125.7196132842157)">6%</text>
		<text class="slice" style="text-anchor: middle;" transform="translate(-17.449823290936486,-137.6483424059843)">4%</text>
		<text class="pieTitleText" x="0" y="-200">Year 2018 benchmark time by % of total</text>
		<g transform="translate(216,-55)">
			<rect height="18" style="fill: rgb(124, 181, 236); stroke: rgb(124, 181, 236);" width="18"/>
			<text x="22" y="14">Day 14</text>
		</g>
		<g transform="translate(216,-33)">
			<rect height="18" style="fill: rgb(198, 205, 213); stroke: rgb(198, 205, 213);" width="18"/>
			<text x="22" y="14">Others</text>
		</g>
		<g transform="translate(216,-11)">
			<rect height="18" style="fill: rgb(144, 237, 125); stroke: rgb(144, 237, 125);" width="18"/>
			<text x="22" y="14">Day 22</text>
		</g>
		<g transform="translate(216,11)">
			<rect height="18" style="fill: rgb(247, 163, 92); stroke: rgb(247, 163, 92);" width="18"/>
			<text x="22" y="14">Day 24</text>
		</g>
		<g transform="translate(216,33)">
			<rect height="18" style="fill: rgb(228, 211, 84); stroke: rgb(228, 211, 84);" width="18"/>
			<text x="22" y="14">Day 11</text>
		</g>
	</g>
</svg>