<!--
%%{init: {"themeVariables": { "pie1": "#7cb5ec", "pie2": "#90ed7d", "pie3": "#c6cdd5"}}}%%
pie
    title Year 2020 benchmark time by % of total
    "Day 15" : 146000
    "Day 23" : 110000
    "Others" : 16161
-->
<svg viewBox="0 0 1350 450" preserveAspectRatio="xMidYMin" xmlns="http://www.w3.org/2000/svg">
	<style>
		text {font-family:sans-serif;font-size:17px;}
		.pieOuterCircle {stroke:black;stroke-width:2px;fill:none;}
		.pieCircle {stroke:black;stroke-width:2px;opacity:0.7;}
		.slice {text-anchor:middle;}
		.pieTitleText {text-anchor:middle;font-size:25px;}
	</style>
	<g transform="translate(675,225)">
		<circle class="pieOuterCircle" cx="0" cy="0" r="186"/>
		<path class="pieCircle" d="M0,-185A185,185,0,1,1,-41.996,180.17L0,0Z" fill="#7cb5ec"/>
		<path class="pieCircle" d="M-41.996,180.17A185,185,0,0,1,-67.433,-172.273L0,0Z" fill="#90ed7d"/>
		<path class="pieCircle" d="M-67.433,-172.273A185,185,0,0,1,0,-185L0,0Z" fill="#c6cdd5"/>
		<text class="slice" style="text-anchor: middle;" transform="translate(137.8414350574204,15.85248502005149)">54%</text>
		<text class="slice" style="text-anchor: middle;" transform="translate(-138.39005094194377,9.987807581557023)">40%</text>
		<text class="slice" style="text-anchor: middle;" transform="translate(-25.733765330454307,-136.34271459053875)">6%</text>
		<text class="pieTitleText" x="0" y="-200">Year 2020 benchmark time by % of total</text>
		<g transform="translate(216,-33)">
			<rect height="18" style="fill: rgb(124, 181, 236); stroke: rgb(124, 181, 236);" width="18"/>
			<text x="22" y="14">Day 15</text>
		</g>
		<g transform="translate(216,-11)">
			<rect height="18" style="fill: rgb(144, 237, 125); stroke: rgb(144, 237, 125);" width="18"/>
			<text x="22" y="14">Day 23</text>
		</g>
		<g transform="translate(216,11)">
			<rect height="18" style="fill: rgb(198, 205, 213); stroke: rgb(198, 205, 213);" width="18"/>
			<text x="22" y="14">Others</text>
		</g>
	</g>
</svg>