<!--
%%{init: {"themeVariables": { "pie1": "#7cb5ec", "pie2": "#90ed7d", "pie3": "#c6cdd5"}}}%%
pie
    title Year 2020 benchmark time by % of total
    "Day 23" : 109000
    "Day 15" : 103000
    "Others" : 8268
-->
<svg viewBox="0 0 1350 450" preserveAspectRatio="xMidYMin" xmlns="http://www.w3.org/2000/svg">
	<style>
		text {font-family:sans-serif;font-size:17px;}
		.pieOuterCircle {stroke:black;stroke-width:2px;fill:none;}
		.pieCircle {stroke:black;stroke-width:2px;opacity:0.7;}
		.slice {text-anchor:middle;}
		.pieTitleText {text-anchor:middle;font-size:25px;}
	</style>
	<g transform="translate(675,225)">
		<circle class="pieOuterCircle" cx="0" cy="0" r="186"/>
		<path class="pieCircle" d="M0,-185A185,185,0,0,1,5.983,184.903L0,0Z" fill="#7cb5ec"/>
		<path class="pieCircle" d="M5.983,184.903A185,185,0,0,1,-43.228,-179.879L0,0Z" fill="#90ed7d"/>
		<path class="pieCircle" d="M-43.228,-179.879A185,185,0,0,1,0,-185L0,0Z" fill="#c6cdd5"/>
		<text class="slice" style="text-anchor: middle;" transform="translate(138.7318525099758,-2.2440140708839578)">49%</text>
		<text class="slice" style="text-anchor: middle;" transform="translate(-137.50436864634548,18.550231889923033)">47%</text>
		<text class="slice" style="text-anchor: middle;" transform="translate(-16.323937272275565,-137.78639835604534)">4%</text>
		<text class="pieTitleText" x="0" y="-200">Year 2020 benchmark time by % of total</text>
		<g transform="translate(216,-33)">
			<rect height="18" style="fill: rgb(124, 181, 236); stroke: rgb(124, 181, 236);" width="18"/>
			<text x="22" y="14">Day 23</text>
		</g>
		<g transform="translate(216,-11)">
			<rect height="18" style="fill: rgb(144, 237, 125); stroke: rgb(144, 237, 125);" width="18"/>
			<text x="22" y="14">Day 15</text>
		</g>
		<g transform="translate(216,11)">
			<rect height="18" style="fill: rgb(198, 205, 213); stroke: rgb(198, 205, 213);" width="18"/>
			<text x="22" y="14">Others</text>
		</g>
	</g>
</svg>