<!--
%%{init: {"themeVariables": { "pie1": "#7cb5ec", "pie2": "#90ed7d", "pie3": "#f7a35c", "pie4": "#e4d354", "pie5": "#c6cdd5", "pie6": "#e4c4fb", "pie7": "#91e8e1"}}}%%
pie
	title Each year benchmark time by % of total
	"Year 2020" : 270
	"Year 2016" : 119
    "Year 2017" : 88
    "Year 2018" : 35
	"Years 2021 - 2024": 28
	"Year 2015" : 17
	"Year 2019" : 16
-->
<svg viewBox="0 0 1350 450" preserveAspectRatio="xMidYMin" xmlns="http://www.w3.org/2000/svg">
	<style>
		text {font-family:sans-serif;font-size:17px;}
		.pieOuterCircle {stroke:black;stroke-width:2px;fill:none;}
		.pieCircle {stroke:black;stroke-width:2px;opacity:0.7;}
		.slice {text-anchor:middle;}
		.pieTitleText {text-anchor:middle;font-size:25px;}
	</style>
	<g transform="translate(675,225)">
		<circle class="pieOuterCircle" cx="0" cy="0" r="186"/>
		<path class="pieCircle" d="M0,-185A185,185,0,0,1,33.29,181.98L0,0Z" fill="#7cb5ec"/>
		<path class="pieCircle" d="M33.29,181.98A185,185,0,0,1,-166.836,79.942L0,0Z" fill="#90ed7d"/>
		<path class="pieCircle" d="M-166.836,79.942A185,185,0,0,1,-160.719,-91.62L0,0Z" fill="#f7a35c"/>
		<path class="pieCircle" d="M-160.719,-91.62A185,185,0,0,1,-114.721,-145.134L0,0Z" fill="#e4d354"/>
		<path class="pieCircle" d="M-114.721,-145.134A185,185,0,0,1,-65.492,-173.019L0,0Z" fill="#c6cdd5"/>
		<path class="pieCircle" d="M-65.492,-173.019A185,185,0,0,1,-32.291,-182.16L0,0Z" fill="#e4c4fb"/>
		<path class="pieCircle" d="M-32.291,-182.16A185,185,0,0,1,0,-185L0,0Z" fill="#91e8e1"/>
		<text class="slice" style="text-anchor: middle;" transform="translate(138.18263155019733,-12.534864892068425)">47%</text>
		<text class="slice" style="text-anchor: middle;" transform="translate(-63.0250700616454,123.6098824678864)">21%</text>
		<text class="slice" style="text-anchor: middle;" transform="translate(-138.66190033720764,-4.943672205385134)">15%</text>
		<text class="slice" style="text-anchor: middle;" transform="translate(-105.22172400629863,-90.44308319126633)">6%</text>
		<text class="slice" style="text-anchor: middle;" transform="translate(-68.38445303281725,-120.72749928414162)">5%</text>
		<text class="slice" style="text-anchor: middle;" transform="translate(-36.828798043565634,-133.77294993632404)">3%</text>
		<text class="slice" style="text-anchor: middle;" transform="translate(-12.156010639993891,-138.21647479703842)">3%</text>
		<text class="pieTitleText" x="0" y="-200">Each year benchmark time by % of total</text>
		<g transform="translate(216,-77)">
			<rect height="18" style="fill: rgb(124, 181, 236); stroke: rgb(124, 181, 236);" width="18"/>
			<text x="22" y="14">Year 2020</text>
		</g>
		<g transform="translate(216,-55)">
			<rect height="18" style="fill: rgb(144, 237, 125); stroke: rgb(144, 237, 125);" width="18"/>
			<text x="22" y="14">Year 2016</text>
		</g>
		<g transform="translate(216,-33)">
			<rect height="18" style="fill: rgb(247, 163, 92); stroke: rgb(247, 163, 92);" width="18"/>
			<text x="22" y="14">Year 2017</text>
		</g>
		<g transform="translate(216,-11)">
			<rect height="18" style="fill: rgb(228, 211, 84); stroke: rgb(228, 211, 84);" width="18"/>
			<text x="22" y="14">Year 2018</text>
		</g>
		<g transform="translate(216,11)">
			<rect height="18" style="fill: rgb(198, 205, 213); stroke: rgb(198, 205, 213);" width="18"/>
			<text x="22" y="14">Years 2021 - 2024</text>
		</g>
		<g transform="translate(216,33)">
			<rect height="18" style="fill: rgb(228, 196, 251); stroke: rgb(228, 196, 251);" width="18"/>
			<text x="22" y="14">Year 2015</text>
		</g>
		<g transform="translate(216,55)">
			<rect height="18" style="fill: rgb(145, 232, 225); stroke: rgb(145, 232, 225);" width="18"/>
			<text x="22" y="14">Year 2019</text>
		</g>
	</g>
</svg>
