<!--
%%{init: {"themeVariables": { "pie1": "#7cb5ec", "pie2": "#c6cdd5", "pie3": "#90ed7d"}}}%%
pie
    title Year 2022 benchmark time by % of total
    "Day 20" : 2690
    "Others" : 1163
	"Day 23" : 1057
-->
<svg viewBox="0 0 1350 450" preserveAspectRatio="xMidYMin" xmlns="http://www.w3.org/2000/svg">
	<style>
		text {font-family:sans-serif;font-size:17px;}
		.pieOuterCircle {stroke:black;stroke-width:2px;fill:none;}
		.pieCircle {stroke:black;stroke-width:2px;opacity:0.7;}
		.slice {text-anchor:middle;}
		.pieTitleText {text-anchor:middle;font-size:25px;}
	</style>
	<g transform="translate(675,225)">
		<circle class="pieOuterCircle" cx="0" cy="0" r="186"/>
		<path class="pieCircle" d="M0,-185A185,185,0,1,1,-54.799,176.698L0,0Z" fill="#7cb5ec"/>
		<path class="pieCircle" d="M-54.799,176.698A185,185,0,0,1,-180.614,-40.045L0,0Z" fill="#c6cdd5"/>
		<path class="pieCircle" d="M-180.614,-40.045A185,185,0,0,1,0,-185L0,0Z" fill="#90ed7d"/>
		<text class="slice" style="text-anchor: middle;" transform="translate(137.1844854897187,20.7841151103712)">55%</text>
		<text class="slice" style="text-anchor: middle;" transform="translate(-119.99793606712286,69.65671424658713)">24%</text>
		<text class="slice" style="text-anchor: middle;" transform="translate(-86.84592015170062,-108.20974379881159)">22%</text>
		<text class="pieTitleText" x="0" y="-200">Year 2022 benchmark time by % of total</text>
		<g transform="translate(216,-33)">
			<rect height="18" style="fill: rgb(124, 181, 236); stroke: rgb(124, 181, 236);" width="18"/>
			<text x="22" y="14">Day 20</text>
		</g>
		<g transform="translate(216,-11)">
			<rect height="18" style="fill: rgb(198, 205, 213); stroke: rgb(198, 205, 213);" width="18"/>
			<text x="22" y="14">Others</text>
		</g>
		<g transform="translate(216,11)">
			<rect height="18" style="fill: rgb(144, 237, 125); stroke: rgb(144, 237, 125);" width="18"/>
			<text x="22" y="14">Day 23</text>
		</g>
	</g>
</svg>