<!--
%%{init: {"themeVariables": { "pie1": "#7cb5ec", "pie2": "#90ed7d", "pie3": "#f7a35c", "pie4": "#e4d354", "pie5": "#e4c4fb", "pie6": "#c6cdd5"}}}%%
pie
	title Each year benchmark time by % of total
	"Year 2020" : 272
	"Year 2016" : 120
    "Year 2017" : 89
	"Years 2015, 2019, 2021, 2022, 2023" : 63
    "Year 2018" : 35
-->
<svg viewBox="0 0 1350 450" preserveAspectRatio="xMidYMin" xmlns="http://www.w3.org/2000/svg">
	<style>
		text {font-family:sans-serif;font-size:17px;}
		.pieOuterCircle {stroke:black;stroke-width:2px;fill:none;}
		.pieCircle {stroke:black;stroke-width:2px;opacity:0.7;}
		.slice {text-anchor:middle;}
		.pieTitleText {text-anchor:middle;font-size:25px;}
	</style>
	<g transform="translate(675,225)">
		<circle class="pieOuterCircle" cx="0" cy="0" r="186"/>
		<path class="pieCircle" d="M0,-185A185,185,0,0,1,34.922,181.674L0,0Z" fill="#7cb5ec"/>
		<path class="pieCircle" d="M34.922,181.674A185,185,0,0,1,-165.894,81.88L0,0Z" fill="#90ed7d"/>
		<path class="pieCircle" d="M-165.894,81.88A185,185,0,0,1,-161.699,-89.88L0,0Z" fill="#f7a35c"/>
		<path class="pieCircle" d="M-161.699,-89.88A185,185,0,0,1,-68.588,-171.816L0,0Z" fill="#e4d354"/>
		<path class="pieCircle" d="M-68.588,-171.816A185,185,0,0,1,0,-185L0,0Z" fill="#e4c4fb"/>
		<text class="slice" style="text-anchor: middle;" transform="translate(138.12497788610509,-13.15496043182881)">47%</text>
		<text class="slice" style="text-anchor: middle;" transform="translate(-61.74707171006582,124.2532157943286)">21%</text>
		<text class="slice" style="text-anchor: middle;" transform="translate(-138.70864299641698,-3.387455991233389)">15%</text>
		<text class="slice" style="text-anchor: middle;" transform="translate(-91.66098062072773,-104.1625034820428)">11%</text>
		<text class="slice" style="text-anchor: middle;" transform="translate(-26.1914035133542,-136.25554257350655)">6%</text>
		<text class="pieTitleText" x="0" y="-200">Each year benchmark time by % of total</text>
		<g transform="translate(216,-55)">
			<rect height="18" style="fill: rgb(124, 181, 236); stroke: rgb(124, 181, 236);" width="18"/>
			<text x="22" y="14">Year 2020</text>
		</g>
		<g transform="translate(216,-33)">
			<rect height="18" style="fill: rgb(144, 237, 125); stroke: rgb(144, 237, 125);" width="18"/>
			<text x="22" y="14">Year 2016</text>
		</g>
		<g transform="translate(216,-11)">
			<rect height="18" style="fill: rgb(247, 163, 92); stroke: rgb(247, 163, 92);" width="18"/>
			<text x="22" y="14">Year 2017</text>
		</g>
		<g transform="translate(216,11)">
			<rect height="18" style="fill: rgb(228, 211, 84); stroke: rgb(228, 211, 84);" width="18"/>
			<text x="22" y="14">Years 2015, 2019, 2021, 2022, 2023</text>
		</g>
		<g transform="translate(216,33)">
			<rect height="18" style="fill: rgb(228, 196, 251); stroke: rgb(228, 196, 251);" width="18"/>
			<text x="22" y="14">Year 2018</text>
		</g>
	</g>
</svg>
